<?xml version="1.0" standalone="no"?>
<!DOCTYPE svg PUBLIC "-//W3C//DTD SVG 20010904//EN"
 "http://www.w3.org/TR/2001/REC-SVG-20010904/DTD/svg10.dtd">
<svg version="1.0" xmlns="http://www.w3.org/2000/svg"
 width="16.000000pt" height="16.000000pt" viewBox="0 0 16.000000 16.000000"
 preserveAspectRatio="xMidYMid meet">

<g transform="translate(0.000000,16.000000) scale(0.100000,-0.100000)"
fill="#000000" stroke="none">
<path d="M52 99 c3 -8 -2 -19 -11 -26 -13 -9 -14 -14 -3 -24 10 -11 12 -9 12
6 0 15 3 16 12 7 8 -8 15 -8 24 -1 17 14 29 -8 14 -26 -8 -10 -9 -15 -2 -15 6
0 14 5 17 10 3 6 11 10 16 10 6 0 7 -5 3 -12 -4 -7 -3 -8 4 -4 17 10 15 26 -3
26 -8 0 -15 5 -15 11 0 6 -7 17 -15 25 -8 9 -15 11 -15 5 0 -6 -4 -11 -10 -11
-5 0 -9 5 -7 11 1 6 -4 14 -12 17 -8 3 -12 -1 -9 -9z"/>
</g>
</svg>
